HIERARCHY
ROOT Hips
{
	OFFSET 0.000000 0.000000 0.000000 
	CHANNELS 6 Xposition Yposition Zposition Zrotation Yrotation Xrotation
	JOINT LeftUpLeg
	{
		OFFSET 1.363060 -1.794630 0.839290 
		CHANNELS 3 Zrotation Yrotation Xrotation
		JOINT LeftLeg
		{
			OFFSET 2.448110 -6.726130 0.000000 
			CHANNELS 3 Zrotation Yrotation Xrotation
			JOINT LeftFoot
			{
				OFFSET 2.562200 -7.039590 0.000000 
				CHANNELS 3 Zrotation Yrotation Xrotation
				JOINT LeftToeBase
				{
					OFFSET 0.157640 -0.433110 2.322550 
					CHANNELS 3 Zrotation Yrotation Xrotation
					End Site
					{
						OFFSET 0.000000 0.000000 0.000000 
					}
				}
			}
		}
	}
	JOINT RightUpLeg
	{
		OFFSET -1.305520 -1.794630 0.839290 
		CHANNELS 3 Zrotation Yrotation Xrotation
		JOINT RightLeg
		{
			OFFSET -2.542530 -6.985550 0.000000 
			CHANNELS 3 Zrotation Yrotation Xrotation
			JOINT RightFoot
			{
				OFFSET -2.568260 -7.056230 0.000000 
				CHANNELS 3 Zrotation Yrotation Xrotation
				JOINT RightToeBase
				{
					OFFSET -0.164730 -0.452590 2.363150 
					CHANNELS 3 Zrotation Yrotation Xrotation
					End Site
					{
						OFFSET 0.000000 0.000000 0.000000 
					}
				}
			}
		}
	}
	JOINT Spine
	{
		OFFSET 0.028270 2.035590 -0.193380 
		CHANNELS 3 Zrotation Yrotation Xrotation
		JOINT Spine1
		{
			OFFSET 0.056720 2.048850 -0.042750 
			CHANNELS 3 Zrotation Yrotation Xrotation
			JOINT Neck1
			{
				OFFSET -0.054170 1.746240 0.172020 
				CHANNELS 3 Zrotation Yrotation Xrotation
				JOINT Head
				{
					OFFSET 0.104070 1.761360 -0.123970 
					CHANNELS 3 Zrotation Yrotation Xrotation
					End Site
					{
						OFFSET 0.000000 0.000000 0.000000 
					}
				}
			}
			JOINT LeftArm
			{
				OFFSET 3.362410 1.200890 -0.311210 
				CHANNELS 3 Zrotation Yrotation Xrotation
				JOINT LeftForeArm
				{
					OFFSET 4.983000 -0.000000 -0.000000 
					CHANNELS 3 Zrotation Yrotation Xrotation
					JOINT LeftHand
					{
						OFFSET 3.483560 -0.000000 -0.000000 
						CHANNELS 3 Zrotation Yrotation Xrotation
						JOINT LeftHandIndex1
						{
							OFFSET 0.715260 -0.000000 -0.000000 
							CHANNELS 3 Zrotation Yrotation Xrotation
							End Site
							{
								OFFSET 0.000000 0.000000 0.000000 
							}
						}
					}
				}
			}
			JOINT RightArm
			{
				OFFSET -3.136600 1.374050 -0.404650 
				CHANNELS 3 Zrotation Yrotation Xrotation
				JOINT RightForeArm
				{
					OFFSET -5.241900 -0.000000 -0.000000 
					CHANNELS 3 Zrotation Yrotation Xrotation
					JOINT RightHand
					{
						OFFSET -3.444170 -0.000000 -0.000000 
						CHANNELS 3 Zrotation Yrotation Xrotation
						JOINT RightHandIndex1
						{
							OFFSET -0.622530 -0.000000 -0.000000 
							CHANNELS 3 Zrotation Yrotation Xrotation
							End Site
							{
								OFFSET 0.000000 0.000000 0.000000 
							}
						}
					}
				}
			}
		}
	}
}
MOTION
Frames: 7
Frame Time: 0.041667
3.135072 16.907474 3.069110 44.613813 -60.460139 -29.074055 -12.619181 -4.267930 -3.073278 4.618850 13.704572 41.388301 2.195162 8.247026 41.176854 0.000100 -0.061200 -0.168100 23.833359 1.129496 -37.354455 -7.669471 -17.241565 52.922228 3.348105 -11.737543 4.453219 -0.609900 -4.998600 13.904500 0.252201 -3.028703 -2.661419 -0.258052 -1.484147 -3.290220 2.387793 -0.546666 5.697967 2.682200 -0.584000 5.671600 -67.666820 2.689749 49.667910 137.508376 -53.021835 -101.501456 -0.131397 -1.186637 -25.381578 -7.125000 0.000000 0.000000 86.369417 -36.643406 33.060925 -128.313650 55.542529 -96.124856 1.687864 -1.538009 -11.594527 7.125000 0.000000 0.000000 
2.840457 16.934032 3.308235 44.938561 -61.374410 -29.318524 -12.396423 -3.727962 -4.572666 6.132161 14.664583 44.606268 0.844529 12.187882 38.736569 0.000000 -0.028800 -0.079000 23.943214 1.574161 -35.926917 -7.591786 -17.113746 52.741864 3.358518 -11.692483 3.729364 -0.449900 -4.303200 11.931200 0.516907 -2.340399 -2.643153 1.672392 -1.177282 -3.190683 2.287307 -0.491837 5.594809 2.761900 -0.614800 5.656400 -69.243480 4.428693 51.174696 133.798297 -55.098054 -98.959860 -0.146326 -1.190002 -23.470715 -7.125000 0.000000 0.000000 84.773897 -34.306272 32.904566 -126.959232 56.199462 -95.312678 1.699176 -1.426046 -12.457090 7.125000 0.000000 0.000000 
2.531700 16.971493 3.550167 45.717041 -62.307003 -30.031471 -12.413406 -3.405306 -6.073763 7.669473 15.544901 47.760904 -0.647757 16.473946 36.317856 0.007600 0.564500 1.551300 23.876792 1.703001 -34.395492 -7.476662 -16.949438 52.391210 3.431002 -11.821336 3.142180 -0.239800 -3.151200 8.700000 0.650644 -1.500556 -2.595874 2.757362 -0.783822 -2.938492 2.098280 -0.762979 5.939899 2.679800 -0.828300 6.018800 -70.112301 5.731738 52.413733 129.782197 -57.085904 -96.201457 -0.195564 -1.225171 -22.890249 -7.125000 0.000000 0.000000 84.098398 -31.641817 32.301127 -125.090246 56.978152 -94.121368 1.776620 -1.342624 -12.763746 7.125000 0.000000 0.000000 
2.227585 16.991897 3.795553 46.608171 -63.080250 -30.937962 -12.485215 -3.454762 -7.428929 9.149663 16.311219 50.760302 -2.341040 20.999326 33.564912 0.105900 2.098300 5.777500 23.641718 1.581222 -32.849349 -7.367755 -16.794081 52.102544 3.419138 -11.720991 2.280454 -0.153700 -2.526300 6.962600 0.656389 -0.873461 -2.531849 2.982684 -0.482629 -2.645631 2.395309 -0.990829 6.288022 2.935900 -0.962200 6.442100 -69.954777 6.974120 52.869963 125.408821 -59.002887 -93.262181 -0.203782 -1.285003 -22.320607 -7.125000 0.000000 0.000000 83.775415 -28.895565 32.166014 -122.991335 57.722410 -92.721518 1.918165 -1.281375 -12.816704 7.125000 0.000000 0.000000 
1.930164 17.004096 4.042991 47.088013 -63.697037 -31.380781 -12.328223 -3.471821 -9.026350 10.349840 16.919555 53.601598 -3.608150 23.765351 31.051409 0.194600 2.841100 7.836700 23.398397 1.284133 -31.508336 -7.235144 -16.644458 51.816347 3.189636 -11.085897 1.417648 -0.128900 -2.314400 6.375300 0.606221 -0.537906 -2.485923 2.554734 -0.303259 -2.360808 2.726301 -1.470625 6.479242 3.102700 -1.170700 6.844900 -69.498741 8.560714 52.275663 120.508415 -60.856449 -90.075903 -0.145168 -1.369808 -22.222942 -7.125000 0.000000 0.000000 83.668662 -25.979699 32.597389 -121.098803 58.272256 -91.462056 2.009581 -1.205221 -12.858328 7.125000 0.000000 0.000000 
1.646884 17.011005 4.261604 47.771451 -64.252846 -32.014471 -12.002349 -3.295714 -10.905593 11.210414 17.404395 56.361574 -4.050486 23.726563 29.130433 0.140700 2.417300 6.660300 23.001783 1.044161 -30.109242 -7.041544 -16.467087 51.419879 2.648525 -9.698002 0.553075 -0.233600 -3.110900 8.587500 0.603470 -0.367497 -2.476228 2.515427 -0.199806 -2.490438 2.904814 -2.224169 6.160648 3.051300 -1.475500 6.841800 -69.641239 10.746870 50.636884 115.081202 -62.515861 -86.648973 -0.085432 -1.417312 -21.799434 -7.125000 0.000000 0.000000 83.437287 -22.744328 33.391765 -119.156050 58.763412 -90.213172 2.069294 -1.081965 -12.714063 7.125000 0.000000 0.000000 
1.349355 17.020289 4.482376 48.290624 -65.208805 -32.361229 -11.344666 -3.045544 -13.068417 11.872215 17.824298 59.020290 -4.004341 22.046589 27.429847 0.096100 1.999200 5.503400 22.836864 0.920022 -28.640665 -6.767657 -16.231398 50.739476 2.130317 -8.410346 -0.230823 -0.273500 -3.363700 9.292900 0.663030 -0.149643 -2.475935 2.841420 -0.077857 -2.712282 3.294999 -3.033513 5.636008 3.260300 -1.798400 6.596200 -70.198560 13.276967 48.727529 109.964720 -63.757075 -83.488338 -0.025429 -1.478039 -21.615081 -7.125000 0.000000 0.000000 82.750191 -19.588479 34.485820 -117.653014 59.100273 -89.261127 2.108257 -0.985591 -12.274271 7.125000 0.000000 0.000000 
